<?xml version="1.0" encoding="UTF-8"?>
<svg id="Layer_1" data-name="Layer 1" xmlns="http://www.w3.org/2000/svg" viewBox="0 0 250 190">
  <defs>
    <style>
      .cls-1 {
        fill: #fff;
      }

      .cls-2 {
        fill: #84a7a1;
      }

      .cls-3 {
        fill: #0e2954;
      }
    </style>
  </defs>
  <rect class="cls-2" y="10" width="30" height="30" rx="5" ry="5"/>
  <rect class="cls-2" x="35" y="10" width="30" height="30" rx="5" ry="5"/>
  <rect class="cls-2" x="70" y="10" width="30" height="30" rx="5" ry="5"/>
  <rect class="cls-3" x="100" width="50" height="50" rx="5" ry="5"/>
  <rect class="cls-2" x="150" y="10" width="30" height="30" rx="5" ry="5"/>
  <rect class="cls-2" x="185" y="10" width="30" height="30" rx="5" ry="5"/>
  <rect class="cls-2" x="220" y="10" width="30" height="30" rx="5" ry="5"/>
  <rect class="cls-2" x="110" y="70" width="30" height="30" rx="5" ry="5" transform="translate(210 -40) rotate(90)"/>
  <rect class="cls-2" x="110" y="115" width="30" height="30" rx="5" ry="5" transform="translate(255 5) rotate(90)"/>
  <rect class="cls-2" x="110" y="160" width="30" height="30" rx="5" ry="5" transform="translate(300 50) rotate(90)"/>
  <path class="cls-1" d="m128.47,21.18l2.57-2.24c-.75-.63-4.04-3.09-8.15-1.97-3.3.89-6.02,3.8-6.29,7.27-.37,4.79,4.07,8.94,8.39,9,1.57.02,3.09-.49,4.42-1.3,1.24-.75,2.33-1.77,3.13-2.98.2-.31.37-.62.68-.84.03-.02.06-.04.09-.06.41-.25.94-.26,1.38-.08.59.24,1.02.84.98,1.49s-.43,1.2-.82,1.68c-.23.28-.48.55-.73.82-1.04,1.13-2.27,2.08-3.61,2.84-.03.02-.07.04-.1.06-1.69.93-3.6,1.53-5.54,1.58-.71.01-1.42-.05-2.12-.18-5.35-1.03-9.79-6.43-9.28-12.33.39-4.46,3.53-8.23,7.63-9.73,4.23-1.56,9.04-.53,12.34,2.65l2.63-2.3v7.68l-7.6-1.04Z"/>
</svg>